<svg xmlns="http://www.w3.org/2000/svg" xmlns:xlink="http://www.w3.org/1999/xlink" width="500" zoomAndPan="magnify" viewBox="0 0 375 374.999991" height="500" preserveAspectRatio="xMidYMid meet" version="1.0"><defs><clipPath id="54b705962c"><path d="M 68.585938 66.003906 L 191 66.003906 L 191 190 L 68.585938 190 Z M 68.585938 66.003906 " clip-rule="nonzero"/></clipPath><clipPath id="67e60f8876"><path d="M 68.585938 75 L 305 75 L 305 309 L 68.585938 309 Z M 68.585938 75 " clip-rule="nonzero"/></clipPath></defs><path fill="#ffc107" d="M 142.546875 166.386719 L 121.253906 144.367188 L 120.628906 143.714844 C 120.035156 143.148438 119.441406 142.628906 118.859375 142.132812 C 117.863281 142.585938 117.046875 143.402344 116.597656 144.457031 L 106.476562 168.035156 C 105.652344 169.976562 106.265625 172.230469 107.976562 173.480469 L 121 182.984375 C 120.296875 188.605469 120.238281 194.226562 120.800781 199.761719 L 107.53125 208.957031 C 106.417969 209.730469 105.734375 210.9375 105.613281 212.214844 C 105.53125 212.929688 105.632812 213.65625 105.902344 214.359375 L 108.027344 219.648438 L 110.621094 226.128906 L 127.257812 209.621094 L 128.738281 208.160156 L 129 207.898438 L 133.253906 203.683594 L 134.359375 204.78125 C 135.457031 204.4375 136.59375 204.238281 137.761719 204.199219 C 137.449219 202.699219 137.199219 201.191406 137.007812 199.671875 C 135.730469 189.582031 137.035156 179.039062 141.332031 169.019531 C 141.714844 168.128906 142.117188 167.25 142.546875 166.386719 " fill-opacity="1" fill-rule="nonzero"/><path fill="#ffc107" d="M 237.105469 264.128906 L 219.773438 246.214844 C 217.601562 247.179688 215.367188 248.027344 213.09375 248.730469 C 210.710938 249.472656 208.265625 250.066406 205.78125 250.5 C 194.917969 252.410156 183.398438 251.296875 172.503906 246.660156 L 169.949219 249.191406 L 169.6875 249.445312 L 168.210938 250.914062 L 147.679688 271.28125 C 147.710938 271.300781 147.75 271.324219 147.78125 271.332031 L 171.347656 281.441406 C 173.289062 282.277344 175.542969 281.652344 176.789062 279.953125 L 186.304688 266.925781 C 191.929688 267.632812 197.550781 267.683594 203.074219 267.128906 L 212.265625 280.394531 C 212.761719 281.109375 213.445312 281.652344 214.199219 281.976562 C 215.277344 282.4375 216.523438 282.480469 217.667969 282.015625 L 218.285156 281.773438 L 225.949219 278.707031 L 236.1875 274.621094 L 241.488281 272.5 C 241.84375 272.359375 242.164062 272.175781 242.464844 271.957031 C 240.28125 267.613281 237.730469 264.785156 237.183594 264.210938 L 237.105469 264.128906 " fill-opacity="1" fill-rule="nonzero"/><path fill="#ffc107" d="M 285.339844 170.257812 L 285.257812 170.070312 L 275.8125 146.4375 C 275.4375 145.503906 274.777344 144.738281 273.960938 144.246094 C 273.777344 144.136719 273.589844 144.042969 273.398438 143.953125 C 272.632812 143.632812 271.777344 143.511719 270.914062 143.640625 L 254.96875 146.128906 C 254.105469 145.019531 253.21875 143.933594 252.285156 142.878906 L 240.816406 154.253906 C 241.632812 155.222656 242.414062 156.226562 243.167969 157.242188 C 244.851562 159.515625 246.359375 161.910156 247.6875 164.394531 C 248.722656 166.335938 249.648438 168.335938 250.472656 170.378906 C 251.167969 172.109375 251.769531 173.878906 252.304688 175.671875 C 252.925781 177.792969 253.429688 179.957031 253.8125 182.148438 C 255.734375 193.0625 254.609375 204.640625 249.910156 215.585938 C 248.964844 217.777344 247.90625 219.890625 246.742188 221.902344 L 258.257812 233.804688 C 261.445312 237.089844 264.988281 240.066406 268.832031 242.675781 L 269.675781 242.824219 C 271.757812 243.199219 273.820312 242.089844 274.644531 240.148438 L 284.753906 216.570312 C 285.589844 214.636719 284.976562 212.375 283.265625 211.140625 L 270.238281 201.625 C 270.941406 196 271.003906 190.375 270.441406 184.855469 L 283.710938 175.660156 C 285.445312 174.453125 286.121094 172.210938 285.339844 170.257812 " fill-opacity="1" fill-rule="nonzero"/><path fill="#ffc107" d="M 147.257812 118.917969 C 147.546875 119.28125 147.871094 119.640625 148.191406 120.015625 L 167.746094 140.234375 C 168.027344 140.070312 168.308594 139.929688 168.601562 139.78125 C 170.261719 138.925781 171.960938 138.152344 173.691406 137.457031 C 175.742188 136.640625 177.824219 135.9375 179.949219 135.351562 C 182.664062 134.597656 185.441406 134.046875 188.246094 133.683594 C 198.335938 132.417969 208.890625 133.722656 218.90625 138.019531 C 220.527344 138.714844 222.09375 139.476562 223.625 140.304688 L 246.179688 117.941406 C 246.40625 115.96875 245.3125 114.066406 243.472656 113.273438 L 219.890625 103.164062 C 217.953125 102.339844 215.699219 102.953125 214.453125 104.65625 L 204.9375 117.691406 C 199.324219 116.976562 193.699219 116.925781 188.167969 117.480469 L 178.972656 104.222656 C 178.480469 103.496094 177.796875 102.964844 177.042969 102.632812 C 176.839844 102.550781 176.636719 102.480469 176.4375 102.429688 C 175.511719 102.179688 174.515625 102.21875 173.570312 102.589844 L 149.953125 112.035156 L 149.75 112.105469 C 147.800781 112.890625 146.632812 114.925781 146.964844 117.015625 L 147.257812 118.917969 " fill-opacity="1" fill-rule="nonzero"/><g clip-path="url(#54b705962c)"><path fill="#ffc107" d="M 72.355469 106.988281 C 76.621094 117.378906 84.820312 130.382812 99.003906 130.382812 C 100.027344 130.382812 101.085938 130.3125 102.171875 130.171875 C 102.171875 130.171875 103.035156 129.980469 104.566406 129.980469 C 108.46875 129.980469 116.644531 131.230469 125.609375 140.140625 L 125.589844 140.164062 L 128.355469 143.019531 L 145.605469 160.863281 L 173.660156 189.863281 L 178.078125 185.488281 L 149.058594 155.925781 L 137.699219 144.355469 L 131.25 137.789062 C 129.140625 135.644531 129.171875 132.195312 131.324219 130.082031 C 132.390625 129.046875 133.765625 128.523438 135.132812 128.523438 C 136.554688 128.523438 137.960938 129.078125 139.039062 130.164062 L 145.242188 136.480469 L 156.539062 147.996094 L 185.8125 177.816406 L 190.859375 172.804688 L 162.445312 143.433594 L 148.894531 129.429688 L 143.765625 124.117188 C 125.558594 103.636719 140.636719 90.378906 125.417969 76.035156 C 118.113281 69.144531 108.679688 66.820312 100.875 66.277344 C 99.464844 66.179688 98.117188 66.136719 96.839844 66.136719 C 92.542969 66.136719 89.085938 66.601562 87.253906 66.902344 C 86.730469 66.992188 86.589844 67.664062 87.03125 67.964844 L 107.390625 81.609375 C 108.820312 82.574219 109.695312 84.164062 109.695312 85.882812 C 109.726562 89.214844 109.03125 92.554688 107.53125 95.667969 C 104.757812 101.515625 99.695312 105.648438 93.601562 107.710938 C 93.097656 107.882812 92.566406 107.972656 92.042969 107.972656 C 91.085938 107.972656 90.128906 107.699219 89.304688 107.195312 L 69.558594 95.078125 C 69.460938 95.019531 69.359375 94.996094 69.246094 94.996094 C 68.894531 94.996094 68.582031 95.316406 68.683594 95.71875 C 69.1875 97.8125 70.335938 102.105469 72.355469 106.988281 " fill-opacity="1" fill-rule="nonzero"/></g><path fill="#ffc107" d="M 293.3125 291.085938 L 292.722656 296.800781 C 292.722656 296.800781 289.851562 297.195312 287.027344 297.597656 L 283.648438 302.246094 C 283.648438 302.246094 280.960938 301.167969 278.316406 300.101562 L 273.066406 302.4375 C 273.066406 302.4375 271.285156 300.152344 269.527344 297.910156 L 263.820312 297.304688 C 263.820312 297.304688 263.410156 294.4375 263.015625 291.613281 L 258.367188 288.230469 C 258.367188 288.230469 259.457031 285.546875 260.519531 282.910156 L 258.175781 277.660156 C 258.175781 277.660156 258.269531 277.589844 258.410156 277.476562 C 259.050781 276.976562 260.894531 275.539062 262.703125 274.117188 L 263.308594 268.40625 C 263.308594 268.40625 266.175781 268.003906 269 267.601562 L 272.382812 262.953125 C 272.382812 262.953125 275.066406 264.039062 277.703125 265.105469 L 279.414062 264.351562 L 282.953125 262.773438 C 282.953125 262.773438 284.742188 265.046875 286.496094 267.300781 L 292.21875 267.890625 C 292.21875 267.890625 292.621094 270.761719 293.011719 273.585938 L 297.660156 276.964844 C 297.660156 276.964844 296.582031 279.652344 295.507812 282.296875 L 297.839844 287.546875 C 297.839844 287.546875 295.566406 289.328125 293.3125 291.085938 Z M 286.214844 257.621094 C 286.113281 257.59375 286.011719 257.5625 285.902344 257.53125 C 274.875 254.074219 264.746094 248.289062 256.367188 240.402344 C 255.53125 239.625 254.71875 238.832031 253.925781 238.007812 L 243.359375 227.09375 L 206.160156 188.625 L 201.234375 193.515625 L 239.207031 232.203125 L 246.710938 239.839844 C 248.753906 241.917969 248.78125 245.210938 246.820312 247.332031 C 246.789062 247.371094 246.75 247.402344 246.71875 247.429688 C 246.691406 247.472656 246.660156 247.511719 246.628906 247.542969 C 246.558594 247.605469 246.488281 247.65625 246.417969 247.714844 C 246.328125 247.792969 246.25 247.875 246.15625 247.957031 C 245.183594 248.707031 243.996094 249.089844 242.816406 249.089844 C 242.375 249.089844 241.933594 249.042969 241.5 248.929688 C 240.554688 248.699219 239.667969 248.207031 238.925781 247.464844 L 231.121094 239.515625 L 193.496094 201.191406 L 188.960938 205.6875 L 225.375 243.328125 L 241.441406 259.9375 L 241.53125 260.027344 C 241.773438 260.277344 242.496094 261.050781 243.460938 262.300781 C 246.320312 265.980469 251.296875 273.738281 251.761719 283.625 C 252.171875 293.582031 258.207031 302.839844 267.753906 306.808594 C 271.164062 308.230469 274.644531 308.882812 278.035156 308.882812 C 290.207031 308.882812 301.242188 300.375 303.785156 287.78125 C 306.402344 274.824219 298.777344 261.726562 286.214844 257.621094 " fill-opacity="1" fill-rule="nonzero"/><g clip-path="url(#67e60f8876)"><path fill="#ffc107" d="M 146.472656 258.828125 L 101.347656 303.59375 C 100.875 302.585938 100.640625 301.5 100.640625 300.425781 C 100.652344 298.53125 101.386719 296.644531 102.835938 295.203125 L 147.941406 250.457031 L 152.75 245.691406 C 154.1875 244.253906 156.066406 243.539062 157.960938 243.539062 C 159.046875 243.539062 160.140625 243.78125 161.148438 244.265625 Z M 92.636719 292.316406 C 90.734375 292.316406 88.832031 291.589844 87.386719 290.132812 C 85.945312 288.683594 85.230469 286.785156 85.242188 284.890625 C 85.25 283 85.976562 281.109375 87.425781 279.671875 L 127.601562 239.828125 L 137.347656 230.160156 C 138.785156 228.730469 140.667969 228.019531 142.546875 228.019531 C 144.460938 228.019531 146.359375 228.742188 147.800781 230.203125 C 150.675781 233.097656 150.65625 237.785156 147.757812 240.664062 L 142.679688 245.703125 L 97.847656 290.171875 C 96.40625 291.601562 94.515625 292.316406 92.636719 292.316406 Z M 77.234375 276.785156 C 76.136719 276.785156 75.050781 276.554688 74.046875 276.070312 L 114.523438 235.914062 L 133.847656 216.742188 C 135.132812 219.5 134.632812 222.867188 132.359375 225.132812 L 117.117188 240.25 L 82.445312 274.640625 C 80.996094 276.070312 79.117188 276.785156 77.234375 276.785156 Z M 165.433594 245.160156 L 165.703125 244.90625 L 165.695312 244.898438 C 166.027344 244.535156 166.316406 244.144531 166.578125 243.742188 C 168.410156 240.773438 168.050781 236.820312 165.484375 234.226562 L 164.457031 233.199219 L 167.304688 230.371094 C 168.683594 229.003906 168.691406 226.769531 167.324219 225.382812 L 163.953125 221.992188 L 180.480469 205.597656 L 182.632812 203.472656 L 184.765625 201.339844 L 189.273438 196.882812 L 191.40625 194.765625 L 194.867188 191.332031 L 197.007812 189.210938 L 201.96875 184.292969 L 204.109375 182.160156 L 206.253906 180.035156 L 236.691406 149.839844 L 248.140625 138.480469 L 267.109375 119.671875 L 282.953125 113.164062 C 283.367188 113 283.726562 112.722656 283.988281 112.347656 L 304.007812 84.675781 C 304.449219 84.054688 304.390625 83.195312 303.847656 82.652344 L 300.636719 79.425781 L 297.429688 76.1875 C 297.117188 75.875 296.714844 75.722656 296.3125 75.722656 C 296 75.722656 295.6875 75.816406 295.40625 76.015625 L 267.574219 95.800781 C 267.199219 96.0625 266.917969 96.414062 266.75 96.828125 L 260.109375 112.617188 L 244.316406 128.28125 L 228.945312 143.53125 L 199.34375 172.894531 L 197.199219 175.027344 L 195.058594 177.148438 L 190.046875 182.117188 L 187.902344 184.25 L 184.453125 187.671875 L 182.3125 189.792969 L 177.867188 194.210938 L 173.582031 198.453125 L 156.964844 214.941406 L 152.777344 210.726562 C 152.09375 210.03125 151.179688 209.679688 150.273438 209.679688 C 149.378906 209.679688 148.472656 210.023438 147.789062 210.707031 L 144.941406 213.523438 L 143.917969 212.484375 C 142.640625 211.199219 141.019531 210.453125 139.351562 210.265625 C 139.046875 210.222656 138.734375 210.203125 138.433594 210.203125 C 136.574219 210.203125 134.722656 210.867188 133.253906 212.195312 L 133.246094 212.183594 L 132.984375 212.449219 L 131.515625 213.90625 L 113.046875 232.222656 L 75.484375 269.480469 C 73.984375 270.96875 72.738281 272.601562 71.730469 274.339844 C 70.554688 276.390625 69.710938 278.59375 69.207031 280.859375 C 68.855469 282.46875 68.675781 284.109375 68.664062 285.757812 C 68.644531 291.652344 70.867188 297.554688 75.34375 302.074219 C 79.851562 306.609375 85.773438 308.882812 91.710938 308.882812 C 93.320312 308.882812 94.929688 308.722656 96.507812 308.378906 C 98.773438 307.90625 100.984375 307.070312 103.046875 305.90625 C 104.796875 304.917969 106.4375 303.683594 107.933594 302.203125 L 145.335938 265.105469 L 163.964844 246.625 L 165.433594 245.160156 " fill-opacity="1" fill-rule="nonzero"/></g></svg>